<svg xmlns="http://www.w3.org/2000/svg" xmlns:xlink="http://www.w3.org/1999/xlink" width="540" height="711.3"><rect width="540" height="711.3" rx="5" ry="5" class="a"/><svg y="0%" x="0%"><circle cx="20" cy="20" r="6" fill="#ff5f58"/><circle cx="40" cy="20" r="6" fill="#ffbd2e"/><circle cx="60" cy="20" r="6" fill="#18c132"/></svg><svg height="651.3" viewBox="0 0 50 65.13" width="500" x="15" xmlns="http://www.w3.org/2000/svg" xmlns:xlink="http://www.w3.org/1999/xlink" y="50"><style>.a{fill:#1e1f29}.g,.h,.i,.j,.k,.l{fill:#00d7d7;white-space:pre}.h,.i,.j,.k,.l{fill:#00d7af}.i,.j,.k,.l{fill:#00ffaf}.j,.k,.l{fill:#00ff87}.k,.l{fill:#5fff87}.l{fill:#5fff5f}.m,.n,.o,.p,.q,.r{fill:#87ff5f;white-space:pre}.n,.o,.p,.q,.r{fill:#87ff00}.o,.p,.q,.r{fill:#afff00}.p,.q,.r{fill:#afd700}.q,.r{fill:#d7d700}.r{fill:#d7af00}</style><g font-family="Monaco,Consolas,Menlo,'Bitstream Vera Sans Mono','Powerline Symbols',monospace" font-size="1.67"><defs><symbol id="a"><path fill="transparent" d="M0 0h50v31H0z"/></symbol></defs><path class="a" d="M0 0h50v65.13H0z"/><svg width="50"><svg><use xlink:href="#a"/><text y="1.67" class="g">⢀⠀⠀⠀⠀</text><text x="5.01" y="1.67" class="h">⠀</text><text x="6.012" y="1.67" class="i">⠀⠀⠀⠀⠀⠀⠀⠀⠀</text><text x="15.03" y="1.67" class="j">⠀⠀⠀⠀⠀⠀⠀⠀</text><text y="3.841" class="g">⢸⣿</text><text x="2.004" y="3.841" class="h">⣶</text><text x="3.006" y="3.841" class="i">⣤⣀⠀⠀⠀⠀⠀⠀⠀</text><text x="12.024" y="3.841" class="j">⠀⠀⠀⠀⠀⠀⠀⠀⠀</text><text x="21.042" y="3.841" class="k">⠀</text><text x="22.044" y="3.841" class="l">⠀⠀⠀⠀⠀⠀⠀⠀⢀⣀⠀</text><text y="6.012" class="i">⠈⣿⣿⣿⣿⣿⣦⣄⠀</text><text x="9.018" y="6.012" class="j">⠀⠀⠀⠀⠀⠀⠀⠀⠀</text><text x="18.036" y="6.012" class="k">⠀</text><text x="19.038" y="6.012" class="l">⠀⠀⠀⠀⠀⠀⣀⣠⣴⣶⣿</text><text x="30.06" y="6.012" class="m">⣿</text><text x="31.062" y="6.012" class="n">⡏⠀</text><text y="8.183" class="i">⠀⠘⣿⣿⣿⣿</text><text x="6.012" y="8.183" class="j">⣿⣿⣷⣄⠀⠀⠀⠀⠀</text><text x="15.03" y="8.183" class="k">⠀</text><text x="16.032" y="8.183" class="l">⣀⣀⡀⠀⠀⣀⣤⣶⣿⣿⣿</text><text x="27.054" y="8.183" class="m">⣿</text><text x="28.056" y="8.183" class="n">⣿⣿⣿⠁⠀</text><text y="10.354" class="i">⠀⠀⠈</text><text x="3.006" y="10.354" class="j">⠻⣿⣿⣿⣿⣿⣿⣿⣿</text><text x="12.024" y="10.354" class="k">⣿</text><text x="13.026" y="10.354" class="l">⣿⣿⣿⣿⣿⣿⣿⣿⣿⣿⣿</text><text x="24.048" y="10.354" class="m">⣿</text><text x="25.05" y="10.354" class="n">⣿⣿⣿⣿⡿⠁⠀⠀</text><text y="12.525" class="j">⠀⠀⠀⠀⠈⠻⣫⣿⣿</text><text x="9.018" y="12.525" class="k">⣿</text><text x="10.02" y="12.525" class="l">⣿⣿⣿⣿⣿⣿⣿⣿⣿⣿⣿</text><text x="21.042" y="12.525" class="m">⣿</text><text x="22.044" y="12.525" class="n">⣿⣿⣿⢿⣿⠿⠋⠀⠀</text><text x="31.062" y="12.525" class="o">⠀⠀</text><text y="14.696" class="j">⠀⠀⠀⠀⠀⣼</text><text x="6.012" y="14.696" class="k">⣿</text><text x="7.014" y="14.696" class="l">⣿⣿⠿⢿⣿⣿⣿⣿⣿⣿⣿</text><text x="18.036" y="14.696" class="m">⣿</text><text x="19.038" y="14.696" class="n">⣿⠿⢿⣿⣿⣿⣷⡅⠀</text><text x="28.056" y="14.696" class="o">⠀⠀⠀⠀⠀</text><text y="16.867" class="j">⠀⠀⠀</text><text x="3.006" y="16.867" class="k">⠀</text><text x="4.008" y="16.867" class="l">⣰⣿⣿⣿⡙⠓⠀⣿⣿⣿⣿</text><text x="15.03" y="16.867" class="m">⣿</text><text x="16.032" y="16.867" class="n">⣿⣿⣿⡇⠛⠀⣿⣿⣿</text><text x="25.05" y="16.867" class="o">⣿⣿⡀⠀⠀⠀⠀⠀</text><text y="19.038" class="k">⠀</text><text x="1.002" y="19.038" class="l">⠀⠀⢀⣿⣿⣿⣿⣷⣶⣾⣿</text><text x="12.024" y="19.038" class="m">⣿</text><text x="13.026" y="19.038" class="n">⡟⠛⣿⣿⣿⣿⣿⣶⣾</text><text x="22.044" y="19.038" class="o">⣿⣿⣿⣿⣿⣧⠀⠀⠀⠀</text><text x="32.064" y="19.038" class="p">⠀</text><text y="21.209" class="l">⠀⠀⠀⢸⠁⠀⠀⢹⣿</text><text x="9.018" y="21.209" class="m">⣿</text><text x="10.02" y="21.209" class="n">⣿⣿⣿⣿⣿⣿⣿⣿⣿</text><text x="19.038" y="21.209" class="o">⣿⣿⣿⠉⠀⠀⠙⣿⣿⡄</text><text x="29.058" y="21.209" class="p">⠀</text><text x="30.06" y="21.209" class="q">⠀⠀⠀</text><text y="23.38" class="l">⠀⠀⠀⢸⣦⣄</text><text x="6.012" y="23.38" class="m">⣤</text><text x="7.014" y="23.38" class="n">⣾⣿⣿⣿⣿⡟⣵⣶⣶</text><text x="16.032" y="23.38" class="o">⣦⢻⣿⣿⣿⣿⣄⣀⣀⣠</text><text x="26.052" y="23.38" class="p">⣿</text><text x="27.054" y="23.38" class="q">⣿⣧⠀⠀⠀⠀</text><text y="25.551" class="l">⠀⠀⠀</text><text x="3.006" y="25.551" class="m">⠈</text><text x="4.008" y="25.551" class="n">⢿⣿⣿⣿⣿⣿⣿⣿⣿</text><text x="13.026" y="25.551" class="o">⣬⣛⣛⣋⣾⣿⣿⣿⣿⣿</text><text x="23.046" y="25.551" class="p">⣿</text><text x="24.048" y="25.551" class="q">⣿⣿⣿⣿⣿⡄⠀⠀⠀</text><text y="27.722" class="m">⠀</text><text x="1.002" y="27.722" class="n">⠀⠀⠀⠈⢿⣿⣿⣿⣿</text><text x="10.02" y="27.722" class="o">⣿⣿⣿⣿⣿⣿⣿⣿⣿⣿</text><text x="20.04" y="27.722" class="p">⣿</text><text x="21.042" y="27.722" class="q">⣿⣿⣿⣿⣿⣿⣿⣿⡇⠀⠀</text><text x="32.064" y="27.722" class="r">⠀</text><text y="29.893" class="n">⠀⠀⠀⠀⠀⣼⣿</text><text x="7.014" y="29.893" class="o">⣿⣿⣿⣿⣿⣿⣿⣿⣿⣿</text><text x="17.034" y="29.893" class="p">⣿</text><text x="18.036" y="29.893" class="q">⣿⣿⣿⣿⣿⣿⣿⣿⣿⣿⣿</text><text x="29.058" y="29.893" class="r">⣿</text><text x="30.06" y="29.893" style="white-space:pre" fill="#ffaf00">⠀</text><path fill="#b9c0cb" d="M0 30.394h1v2.171H0z"/><text y="32.064" style="white-space:pre" fill="#1e1f29" font-weight="700">%</text></svg></svg></g></svg></svg>