<svg xmlns="http://www.w3.org/2000/svg" xmlns:xlink="http://www.w3.org/1999/xlink" width="590" height="711.3"><rect width="590" height="711.3" rx="5" ry="5" class="a"/><svg y="0%" x="0%"><circle cx="20" cy="20" r="6" fill="#ff5f58"/><circle cx="40" cy="20" r="6" fill="#ffbd2e"/><circle cx="60" cy="20" r="6" fill="#18c132"/></svg><svg height="651.3" viewBox="0 0 50 65.13" width="500" x="40" xmlns="http://www.w3.org/2000/svg" xmlns:xlink="http://www.w3.org/1999/xlink" y="50"><style>@keyframes u{0%{transform:translateX(0)}4%{transform:translateX(-50px)}8%{transform:translateX(-100px)}12%{transform:translateX(-150px)}16%{transform:translateX(-200px)}20%{transform:translateX(-250px)}24%{transform:translateX(-300px)}28%{transform:translateX(-350px)}32%{transform:translateX(-400px)}36%{transform:translateX(-450px)}40%{transform:translateX(-500px)}44%{transform:translateX(-550px)}48%{transform:translateX(-600px)}52%{transform:translateX(-650px)}56%{transform:translateX(-700px)}60%{transform:translateX(-750px)}64%{transform:translateX(-800px)}68%{transform:translateX(-850px)}72%{transform:translateX(-900px)}76%{transform:translateX(-950px)}80%{transform:translateX(-1000px)}84%{transform:translateX(-1050px)}88%{transform:translateX(-1100px)}92%{transform:translateX(-1150px)}96%{transform:translateX(-1200px)}to{transform:translateX(-1250px)}}.a{fill:#1e1f29}.f,.g{fill:#5f87ff;white-space:pre}.g{fill:#0087ff}.h,.i,.j,.k,.l,.m{fill:#00afff;white-space:pre}.i,.j,.k,.l,.m{fill:#00afd7}.j,.k,.l,.m{fill:#00d7d7}.k,.l,.m{fill:#00d7af}.l,.m{fill:#00ffaf}.m{fill:#00ff87}.n,.o,.p,.q,.r,.s{fill:#5fff87;white-space:pre}.o,.p,.q,.r,.s{fill:#5fff5f}.p,.q,.r,.s{fill:#87ff5f}.q,.r,.s{fill:#87ff00}.r,.s{fill:#afff00}.s{fill:#afd700}</style><g font-family="Monaco,Consolas,Menlo,'Bitstream Vera Sans Mono','Powerline Symbols',monospace" font-size="1.67"><defs><symbol id="1"><text y="1.67" class="f">⣿⣿⣿⣿</text><text x="4.008" y="1.67" class="g">⣿⣿⣿⣿</text><text x="8.016" y="1.67" class="h">⣿⣿⣿⣿⣿</text><text x="13.026" y="1.67" class="i">⣿⣿⣿⣿</text><text x="17.034" y="1.67" class="j">⣿⣿⣿⣿</text><text x="21.042" y="1.67" class="k">⣿⣿⣿⣿⣿</text><text x="26.052" y="1.67" class="l">⣿⣿⣿⣿</text><text x="30.06" y="1.67" class="m">⣿⣿⣿⣿</text><text x="34.068" y="1.67" class="n">⣿⣿⣿⣿⣿</text><text x="39.078" y="1.67" class="o">⣿⣿⣿⣿</text><text x="43.086" y="1.67" class="p">⣿⣿⣿⣿</text><text x="47.094" y="1.67" class="q">⣿⣿</text></symbol><symbol id="2"><text y="1.67" class="f">⣿⣿⣿</text><text x="3.006" y="1.67" class="g">⣿⣿⣿⣿⣿</text><text x="8.016" y="1.67" class="h">⣿⣿⣿⣿</text><text x="12.024" y="1.67" class="i">⣿⣿⣿⣿</text><text x="16.032" y="1.67" class="j">⣿⣿⣿⣿⣿</text><text x="21.042" y="1.67" class="k">⣿⣿⣿⣿</text><text x="25.05" y="1.67" class="l">⣿⣿⣿⣿</text><text x="29.058" y="1.67" class="m">⣿⣿⣿⣿⣿</text><text x="34.068" y="1.67" class="n">⣿⣿⣿⣿</text><text x="38.076" y="1.67" class="o">⣿⣿⣿⣿⣿</text><text x="43.086" y="1.67" class="p">⣿⣿⣿⣿</text><text x="47.094" y="1.67" class="q">⣿⣿</text></symbol><symbol id="3"><text y="1.67" class="f">⣿⣿⣿</text><text x="3.006" y="1.67" class="g">⣿⣿⣿⣿</text><text x="7.014" y="1.67" class="h">⣿⣿⣿⣿⣿</text><text x="12.024" y="1.67" class="i">⣿⣿⡿⠿</text><text x="16.032" y="1.67" class="j">⣿⣿⣿⣿</text><text x="20.04" y="1.67" class="k">⣿⣿⣿⣿⣿</text><text x="25.05" y="1.67" class="l">⣿⣿⣿⣿</text><text x="29.058" y="1.67" class="m">⣿⣿⣿⣿</text><text x="33.066" y="1.67" class="n">⠿⢿⣿⣿⣿</text><text x="38.076" y="1.67" class="o">⣿⣿⣿⣿</text><text x="42.084" y="1.67" class="p">⣿⣿⣿⣿</text><text x="46.092" y="1.67" class="q">⣿⣿⣿</text></symbol><symbol id="4"><text y="1.67" class="f">⣿⣿⣿</text><text x="3.006" y="1.67" class="g">⣿⣿⣿⣿</text><text x="7.014" y="1.67" class="h">⣿⣿⡟⢻</text><text x="11.022" y="1.67" class="i">⣿⣿⣿⡇⠀</text><text x="16.032" y="1.67" class="j">⣿⣿⣿⡟</text><text x="20.04" y="1.67" class="k">⠉⣿⣿⣿</text><text x="24.048" y="1.67" class="l">⣿⣿⣿⣿⠉</text><text x="29.058" y="1.67" class="m">⢻⣿⣿⣿</text><text x="33.066" y="1.67" class="n">⠀⢸⣿⣿</text><text x="37.074" y="1.67" class="o">⣿⡟⢻⣿⣿</text><text x="42.084" y="1.67" class="p">⣿⣿⣿⣿</text><text x="46.092" y="1.67" class="q">⣿⣿⣿</text></symbol><symbol id="5"><text y="1.67" class="f">⣿⣿</text><text x="2.004" y="1.67" class="g">⣿⣿⣿⣿</text><text x="6.012" y="1.67" class="h">⣿⣿⣿⣧⠀</text><text x="11.022" y="1.67" class="i">⠻⠿⠟⢃</text><text x="15.03" y="1.67" class="j">⡀⠛⠿⠿</text><text x="19.038" y="1.67" class="k">⠁⣸⣿⣿⣿</text><text x="24.048" y="1.67" class="l">⣿⣿⣿⣿</text><text x="28.056" y="1.67" class="m">⣇⠈⠿⠿⠛</text><text x="33.066" y="1.67" class="n">⢀⡘⠻⠿</text><text x="37.074" y="1.67" class="o">⠟⠀⣼⣿</text><text x="41.082" y="1.67" class="p">⣿⣿⣿⣿⣿</text><text x="46.092" y="1.67" class="q">⣿⣿⣿</text></symbol><symbol id="6"><text y="1.67" class="f">⡿⣿</text><text x="2.004" y="1.67" class="g">⣿⣿⣿⣿</text><text x="6.012" y="1.67" class="h">⣿⣿⡿⢋</text><text x="10.02" y="1.67" class="i">⣥⣶⣿⣿⣿</text><text x="15.03" y="1.67" class="j">⣿⣿⣿⣶</text><text x="19.038" y="1.67" class="k">⣤⡙⢿⣿</text><text x="23.046" y="1.67" class="l">⣿⣿⣿⣿⡿</text><text x="28.056" y="1.67" class="m">⢋⣤⣶⣿</text><text x="32.064" y="1.67" class="n">⣿⣿⣿⣿</text><text x="36.072" y="1.67" class="o">⣿⣶⣬⡙⢿</text><text x="41.082" y="1.67" class="p">⣿⣿⣿⣿</text><text x="45.09" y="1.67" class="q">⣿⣿⣿⣿</text></symbol><symbol id="7"><text y="1.67" class="f">⣿</text><text x="1.002" y="1.67" class="g">⣿⣿⣿⣿⣿</text><text x="6.012" y="1.67" class="h">⣿⢏⣴⣿</text><text x="10.02" y="1.67" class="i">⣿⣿⣿⣿</text><text x="14.028" y="1.67" class="j">⣿⣿⣿⣿⣿</text><text x="19.038" y="1.67" class="k">⣿⣿⣧⡙</text><text x="23.046" y="1.67" class="l">⢿⣿⡿⢋</text><text x="27.054" y="1.67" class="m">⣼⣿⣿⣿⣿</text><text x="32.064" y="1.67" class="n">⣿⣿⣿⣿</text><text x="36.072" y="1.67" class="o">⣿⣿⣿⣿</text><text x="40.08" y="1.67" class="p">⣦⡹⣿⣿⣿</text><text x="45.09" y="1.67" class="q">⣿⣿⣿⣿</text></symbol><symbol id="8"><text y="1.67" class="f">⣿</text><text x="1.002" y="1.67" class="g">⣿⣿⣿⣿</text><text x="5.01" y="1.67" class="h">⣿⠇⣾⣿</text><text x="9.018" y="1.67" class="i">⣿⣿⣿⣿⣿</text><text x="14.028" y="1.67" class="j">⣿⠟⣫⣭</text><text x="18.036" y="1.67" class="k">⣭⣭⡛⢿⣿</text><text x="23.046" y="1.67" class="l">⡌⣿⢡⣿</text><text x="27.054" y="1.67" class="m">⡿⢛⣭⣭</text><text x="31.062" y="1.67" class="n">⣭⣝⠻⣿⣿</text><text x="36.072" y="1.67" class="o">⣿⣿⣿⣿</text><text x="40.08" y="1.67" class="p">⣿⣷⠸⣿</text><text x="44.088" y="1.67" class="q">⣿⣿⣿⣿⣿</text></symbol><symbol id="9"><text y="1.67" class="g">⣿⣿⣿⣿⣿</text><text x="5.01" y="1.67" class="h">⡿⢸⣿⣿</text><text x="9.018" y="1.67" class="i">⣿⣿⣿⣿</text><text x="13.026" y="1.67" class="j">⣿⢇⣾⠏⠁</text><text x="18.036" y="1.67" class="k">⠈⠙⣿⡌</text><text x="22.044" y="1.67" class="l">⣿⣧⠀⣼</text><text x="26.052" y="1.67" class="m">⣿⢡⣿⠋⠁</text><text x="31.062" y="1.67" class="n">⠈⠹⣷⡸</text><text x="35.07" y="1.67" class="o">⣿⣿⣿⣿</text><text x="39.078" y="1.67" class="p">⣿⣿⣿⡇⢿</text><text x="44.088" y="1.67" class="q">⣿⣿⣿⣿</text><text x="48.096" y="1.67" class="r">⣿</text></symbol><symbol id="10"><text y="1.67" class="g">⣿⣿⣿⣿</text><text x="4.008" y="1.67" class="h">⣿⣇⢸⣿⣿</text><text x="9.018" y="1.67" class="i">⣿⣿⣿⣿</text><text x="13.026" y="1.67" class="j">⣿⡜⣿⡄</text><text x="17.034" y="1.67" class="k">⠀⠀⢀⣾⠇</text><text x="22.044" y="1.67" class="l">⣿⣿⠀⣿</text><text x="26.052" y="1.67" class="m">⣿⠸⣷⡀</text><text x="30.06" y="1.67" class="n">⠀⠀⢠⣿⢣</text><text x="35.07" y="1.67" class="o">⣿⣿⣿⣿</text><text x="39.078" y="1.67" class="p">⣿⣿⣿⡇</text><text x="43.086" y="1.67" class="q">⣸⣿⣿⣿⣿</text><text x="48.096" y="1.67" class="r">⣿</text></symbol><symbol id="11"><text y="1.67" class="g">⣿⣿⣿⣿</text><text x="4.008" y="1.67" class="h">⣿⣿⡘⣿</text><text x="8.016" y="1.67" class="i">⣿⣿⣿⣿⣿</text><text x="13.026" y="1.67" class="j">⣿⣷⣌⠻</text><text x="17.034" y="1.67" class="k">⠷⠶⠿⣋</text><text x="21.042" y="1.67" class="l">⣼⠟⣡⣤⣬</text><text x="26.052" y="1.67" class="m">⣙⢧⣙⠿</text><text x="30.06" y="1.67" class="n">⠶⠾⠟⣡</text><text x="34.068" y="1.67" class="o">⣾⣿⣿⣿⣿</text><text x="39.078" y="1.67" class="p">⣿⣿⣿⢃</text><text x="43.086" y="1.67" class="q">⣿⣿⣿⣿</text><text x="47.094" y="1.67" class="r">⣿⣿</text></symbol><symbol id="12"><text y="1.67" class="g">⣿⣿⣿</text><text x="3.006" y="1.67" class="h">⣿⢟⣭⣶⢶</text><text x="8.016" y="1.67" class="i">⣮⣝⢻⣿</text><text x="12.024" y="1.67" class="j">⣿⣿⣿⣿</text><text x="16.032" y="1.67" class="k">⣿⣿⣿⣿⣿</text><text x="21.042" y="1.67" class="l">⡇⣾⣿⣿</text><text x="25.05" y="1.67" class="m">⣿⣿⡆⣿</text><text x="29.058" y="1.67" class="n">⣿⣿⣿⣿⣿</text><text x="34.068" y="1.67" class="o">⣿⣿⣿⣿</text><text x="38.076" y="1.67" class="p">⡟⣫⣵⡶⣶</text><text x="43.086" y="1.67" class="q">⣭⡻⣿⣿</text><text x="47.094" y="1.67" class="r">⣿⣿</text></symbol><symbol id="13"><text y="1.67" class="g">⣿⣿⣿</text><text x="3.006" y="1.67" class="h">⣱⣿⣿⣻</text><text x="7.014" y="1.67" class="i">⣿⣿⣿⣧⢻</text><text x="12.024" y="1.67" class="j">⣿⣿⣿⣿</text><text x="16.032" y="1.67" class="k">⣿⣿⣿⣿</text><text x="20.04" y="1.67" class="l">⠟⣡⢸⣿⣿</text><text x="25.05" y="1.67" class="m">⣿⣿⢃⠻</text><text x="29.058" y="1.67" class="n">⣿⣿⣿⣿</text><text x="33.066" y="1.67" class="o">⣿⣿⣿⣿⡟</text><text x="38.076" y="1.67" class="p">⣼⣿⣿⣿</text><text x="42.084" y="1.67" class="q">⣟⣿⣿⣎</text><text x="46.092" y="1.67" class="r">⣿⣿⣿</text></symbol><symbol id="14"><text y="1.67" class="g">⣿⣿⣿</text><text x="3.006" y="1.67" class="h">⣻⣿⣿⣏</text><text x="7.014" y="1.67" class="i">⡁⠲⣿⣧</text><text x="11.022" y="1.67" class="j">⣬⣙⣛⣛⣛</text><text x="16.032" y="1.67" class="k">⣛⣋⣭⣴</text><text x="20.04" y="1.67" class="l">⣿⣿⣧⣿</text><text x="24.048" y="1.67" class="m">⣿⣿⣣⣾⣿</text><text x="29.058" y="1.67" class="n">⣦⣭⣙⣛</text><text x="33.066" y="1.67" class="o">⣛⣛⣛⣋</text><text x="37.074" y="1.67" class="p">⣥⣼⣿⠖⢈</text><text x="42.084" y="1.67" class="q">⣹⣿⣿⣟</text><text x="46.092" y="1.67" class="r">⣿⣿⣿</text></symbol><symbol id="15"><text y="1.67" class="g">⣿⣿</text><text x="2.004" y="1.67" class="h">⣿⣿⣿⣿</text><text x="6.012" y="1.67" class="i">⣿⡇⠀⠀⠙</text><text x="11.022" y="1.67" class="j">⠻⢿⣿⣿</text><text x="15.03" y="1.67" class="k">⣿⣿⣿⣿</text><text x="19.038" y="1.67" class="l">⣿⣿⣿⣿⣿</text><text x="24.048" y="1.67" class="m">⣿⣿⣿⣿</text><text x="28.056" y="1.67" class="n">⣿⣿⣿⣿⣿</text><text x="33.066" y="1.67" class="o">⣿⣿⣿⡿</text><text x="37.074" y="1.67" class="p">⠟⠋⠀⠀</text><text x="41.082" y="1.67" class="q">⢸⣿⣿⣿⣿</text><text x="46.092" y="1.67" class="r">⣿⣿⣿</text></symbol><symbol id="16"><text y="1.67" class="g">⣿⣿</text><text x="2.004" y="1.67" class="h">⣿⣿⣿⣿</text><text x="6.012" y="1.67" class="i">⣿⣿⡀⠀</text><text x="10.02" y="1.67" class="j">⠀⠀⠀⠈⠙</text><text x="15.03" y="1.67" class="k">⠛⠿⣿⣿</text><text x="19.038" y="1.67" class="l">⣿⣿⣿⣿</text><text x="23.046" y="1.67" class="m">⣿⣿⣿⣿⣿</text><text x="28.056" y="1.67" class="n">⣿⣿⣿⣿</text><text x="32.064" y="1.67" class="o">⠿⠛⠋⠁</text><text x="36.072" y="1.67" class="p">⠀⠀⠀⠀⢀</text><text x="41.082" y="1.67" class="q">⣿⣿⣿⣿</text><text x="45.09" y="1.67" class="r">⣿⣿⣿⣿</text></symbol><symbol id="17"><text y="1.67" class="g">⣿</text><text x="1.002" y="1.67" class="h">⣿⣿⣿⣿⣿</text><text x="6.012" y="1.67" class="i">⣿⣿⣧⠀</text><text x="10.02" y="1.67" class="j">⠀⠀⠀⠀</text><text x="14.028" y="1.67" class="k">⠀⠀⠀⠀⢰</text><text x="19.038" y="1.67" class="l">⣭⣭⣍⣛</text><text x="23.046" y="1.67" class="m">⠛⠛⠛⣛</text><text x="27.054" y="1.67" class="n">⣩⣭⣭⡆⠀</text><text x="32.064" y="1.67" class="o">⠀⠀⠀⠀</text><text x="36.072" y="1.67" class="p">⠀⠀⠀⠀</text><text x="40.08" y="1.67" class="q">⣼⣿⣿⣿⣿</text><text x="45.09" y="1.67" class="r">⣿⣯⣿⣿</text></symbol><symbol id="18"><text y="1.67" class="g">⣿</text><text x="1.002" y="1.67" class="h">⣿⣿⣿⣿</text><text x="5.01" y="1.67" class="i">⣿⣿⣿⣿</text><text x="9.018" y="1.67" class="j">⣧⠀⠀⠀⠀</text><text x="14.028" y="1.67" class="k">⠀⠀⠀⠀</text><text x="18.036" y="1.67" class="l">⣾⣿⣿⣿⣿</text><text x="23.046" y="1.67" class="m">⠀⠀⠀⣿</text><text x="27.054" y="1.67" class="n">⣿⣿⣿⣷</text><text x="31.062" y="1.67" class="o">⠀⠀⠀⠀⠀</text><text x="36.072" y="1.67" class="p">⠀⠀⠀⣼</text><text x="40.08" y="1.67" class="q">⣿⣿⣿⣿</text><text x="44.088" y="1.67" class="r">⣿⣿⣿⣿⣿</text></symbol><symbol id="19"><text y="1.67" class="h">⣿⣿⣿⣿⣿</text><text x="5.01" y="1.67" class="i">⣿⣿⣿⣿</text><text x="9.018" y="1.67" class="j">⣿⣧⡀⠀</text><text x="13.026" y="1.67" class="k">⠀⠀⠀⠀⠀</text><text x="18.036" y="1.67" class="l">⠙⠛⠛⠛</text><text x="22.044" y="1.67" class="m">⠋⠀⠀⠀</text><text x="26.052" y="1.67" class="n">⠙⠛⠛⠛⠋</text><text x="31.062" y="1.67" class="o">⠀⠀⠀⠀</text><text x="35.07" y="1.67" class="p">⠀⠀⢀⣼</text><text x="39.078" y="1.67" class="q">⣿⣿⣿⣿⣿</text><text x="44.088" y="1.67" class="r">⣿⣿⣿⣿</text><text x="48.096" y="1.67" class="s">⣿</text></symbol><symbol id="20"><text y="1.67" class="h">⣿⣿⣿⣿</text><text x="4.008" y="1.67" class="i">⣿⣿⣿⣿⣿</text><text x="9.018" y="1.67" class="j">⣿⣿⣷⣄</text><text x="13.026" y="1.67" class="k">⠀⠀⠀⠀</text><text x="17.034" y="1.67" class="l">⠀⠀⠀⣀⣀</text><text x="22.044" y="1.67" class="m">⠀⠀⠀⠀</text><text x="26.052" y="1.67" class="n">⠀⣀⣀⠀</text><text x="30.06" y="1.67" class="o">⠀⠀⠀⠀⠀</text><text x="35.07" y="1.67" class="p">⠀⣠⣾⣿</text><text x="39.078" y="1.67" class="q">⣿⣿⣿⣿</text><text x="43.086" y="1.67" class="r">⣿⣿⣿⣿⣿</text><text x="48.096" y="1.67" class="s">⣿</text></symbol><symbol id="21"><text y="1.67" class="h">⣿⣿⣿⣿</text><text x="4.008" y="1.67" class="i">⣿⣿⣿⣿</text><text x="8.016" y="1.67" class="j">⣿⣿⣿⣿⣿</text><text x="13.026" y="1.67" class="k">⣷⣤⡀⠀</text><text x="17.034" y="1.67" class="l">⣠⣾⣿⣿</text><text x="21.042" y="1.67" class="m">⣿⣿⣷⣶⣾</text><text x="26.052" y="1.67" class="n">⣿⣿⣿⣿</text><text x="30.06" y="1.67" class="o">⣷⣄⠀⢀</text><text x="34.068" y="1.67" class="p">⣤⣾⣿⣿⣿</text><text x="39.078" y="1.67" class="q">⣿⣿⣿⣿</text><text x="43.086" y="1.67" class="r">⣿⣿⣿⣿</text><text x="47.094" y="1.67" class="s">⣿⣿</text></symbol><symbol id="22"><text y="1.67" class="h">⣿⣿⣿</text><text x="3.006" y="1.67" class="i">⣿⣿⣿⣿⣿</text><text x="8.016" y="1.67" class="j">⣿⣿⣿⣿</text><text x="12.024" y="1.67" class="k">⣿⣿⣿⣿</text><text x="16.032" y="1.67" class="l">⣷⣦⣬⣉⡛</text><text x="21.042" y="1.67" class="m">⠛⠛⠿⠿</text><text x="25.05" y="1.67" class="n">⠿⠛⠛⢛</text><text x="29.058" y="1.67" class="o">⣉⣥⣴⣾⣿</text><text x="34.068" y="1.67" class="p">⣿⣿⣿⣿</text><text x="38.076" y="1.67" class="q">⣿⣿⣿⣿⣿</text><text x="43.086" y="1.67" class="r">⣿⣿⣿⣿</text><text x="47.094" y="1.67" class="s">⣿⣿</text></symbol><symbol id="23"><text y="1.67" class="h">⣿⣿⣿</text><text x="3.006" y="1.67" class="i">⣿⣿⣿⣿</text><text x="7.014" y="1.67" class="j">⣿⣿⣿⣿⣿</text><text x="12.024" y="1.67" class="k">⣿⣿⣿⣿</text><text x="16.032" y="1.67" class="l">⣿⣿⣿⣿</text><text x="20.04" y="1.67" class="m">⣿⣿⣿⣿⣿</text><text x="25.05" y="1.67" class="n">⣿⣿⣿⣿</text><text x="29.058" y="1.67" class="o">⣿⣿⣿⣿</text><text x="33.066" y="1.67" class="p">⣿⣿⣿⣿⣿</text><text x="38.076" y="1.67" class="q">⣿⣿⣿⣿</text><text x="42.084" y="1.67" class="r">⣿⣿⣿⣿</text><text x="46.092" y="1.67" class="s">⣿⣿⣿</text></symbol><symbol id="24"><text y="1.67" class="h">⣿⣿⣿</text><text x="3.006" y="1.67" class="i">⣿⣿⣿⣿</text><text x="7.014" y="1.67" class="j">⣿⣿⣿⣿</text><text x="11.022" y="1.67" class="k">⣿⣿⣿⣿⣿</text><text x="16.032" y="1.67" class="l">⣿⣿⣿⣿</text><text x="20.04" y="1.67" class="m">⣿⣿⣿⣿</text><text x="24.048" y="1.67" class="n">⣿⣿⣿⣿⣿</text><text x="29.058" y="1.67" class="o">⣿⣿⣿⣿</text><text x="33.066" y="1.67" class="p">⣿⣿⣿⣿</text><text x="37.074" y="1.67" class="q">⣿⣿⣿⣿⣿</text><text x="42.084" y="1.67" class="r">⣿⣿⣿⣿</text><text x="46.092" y="1.67" class="s">⣿⣿⣿</text></symbol><symbol id="25"><text y="1.67" class="h">⣿⣿</text><text x="2.004" y="1.67" class="i">⣿⣿⣿⣿</text><text x="6.012" y="1.67" class="j">⣿⣿⣿⣿⣿</text><text x="11.022" y="1.67" class="k">⣿⣿⣿⣿</text><text x="15.03" y="1.67" class="l">⣿⣿⣿⣿</text><text x="19.038" y="1.67" class="m">⣿⣿⣿⣿⣿</text><text x="24.048" y="1.67" class="n">⣿⣿⣿⣿</text><text x="28.056" y="1.67" class="o">⣿⣿⣿⣿⣿</text><text x="33.066" y="1.67" class="p">⣿⣿⣿⣿</text><text x="37.074" y="1.67" class="q">⣿⣿⣿⣿</text><text x="41.082" y="1.67" class="r">⣿⣿⣿⣿⣿</text><text x="46.092" y="1.67" class="s">⣿⣿⣿</text></symbol><symbol id="a"><path fill="transparent" d="M0 0h50v31H0z"/></symbol></defs><path class="a" d="M0 0h50v65.13H0z"/><g style="animation-duration:7.5534919999999985s;animation-iteration-count:infinite;animation-name:u;animation-timing-function:steps(1,end)"><svg width="1300"><svg><use xlink:href="#a"/><use xlink:href="#1"/></svg><svg x="50"><use xlink:href="#a"/><use xlink:href="#1"/><use xlink:href="#2" y="2.171"/></svg><svg x="100"><use xlink:href="#a"/><use xlink:href="#1"/><use xlink:href="#2" y="2.171"/><use xlink:href="#3" y="4.342"/></svg><svg x="150"><use xlink:href="#a"/><use xlink:href="#1"/><use xlink:href="#2" y="2.171"/><use xlink:href="#3" y="4.342"/><use xlink:href="#4" y="6.513"/></svg><svg x="200"><use xlink:href="#a"/><use xlink:href="#1"/><use xlink:href="#2" y="2.171"/><use xlink:href="#3" y="4.342"/><use xlink:href="#4" y="6.513"/><use xlink:href="#5" y="8.684"/></svg><svg x="250"><use xlink:href="#a"/><use xlink:href="#1"/><use xlink:href="#2" y="2.171"/><use xlink:href="#3" y="4.342"/><use xlink:href="#4" y="6.513"/><use xlink:href="#5" y="8.684"/><use xlink:href="#6" y="10.855"/></svg><svg x="300"><use xlink:href="#a"/><use xlink:href="#1"/><use xlink:href="#2" y="2.171"/><use xlink:href="#3" y="4.342"/><use xlink:href="#4" y="6.513"/><use xlink:href="#5" y="8.684"/><use xlink:href="#6" y="10.855"/><use xlink:href="#7" y="13.026"/></svg><svg x="350"><use xlink:href="#a"/><use xlink:href="#1"/><use xlink:href="#2" y="2.171"/><use xlink:href="#3" y="4.342"/><use xlink:href="#4" y="6.513"/><use xlink:href="#5" y="8.684"/><use xlink:href="#6" y="10.855"/><use xlink:href="#7" y="13.026"/><use xlink:href="#8" y="15.197"/></svg><svg x="400"><use xlink:href="#a"/><use xlink:href="#1"/><use xlink:href="#2" y="2.171"/><use xlink:href="#3" y="4.342"/><use xlink:href="#4" y="6.513"/><use xlink:href="#5" y="8.684"/><use xlink:href="#6" y="10.855"/><use xlink:href="#7" y="13.026"/><use xlink:href="#8" y="15.197"/><use xlink:href="#9" y="17.368"/></svg><svg x="450"><use xlink:href="#a"/><use xlink:href="#1"/><use xlink:href="#2" y="2.171"/><use xlink:href="#3" y="4.342"/><use xlink:href="#4" y="6.513"/><use xlink:href="#5" y="8.684"/><use xlink:href="#6" y="10.855"/><use xlink:href="#7" y="13.026"/><use xlink:href="#8" y="15.197"/><use xlink:href="#9" y="17.368"/><use xlink:href="#10" y="19.539"/></svg><svg x="500"><use xlink:href="#a"/><use xlink:href="#1"/><use xlink:href="#2" y="2.171"/><use xlink:href="#3" y="4.342"/><use xlink:href="#4" y="6.513"/><use xlink:href="#5" y="8.684"/><use xlink:href="#6" y="10.855"/><use xlink:href="#7" y="13.026"/><use xlink:href="#8" y="15.197"/><use xlink:href="#9" y="17.368"/><use xlink:href="#10" y="19.539"/><use xlink:href="#11" y="21.71"/></svg><svg x="550"><use xlink:href="#a"/><use xlink:href="#1"/><use xlink:href="#2" y="2.171"/><use xlink:href="#3" y="4.342"/><use xlink:href="#4" y="6.513"/><use xlink:href="#5" y="8.684"/><use xlink:href="#6" y="10.855"/><use xlink:href="#7" y="13.026"/><use xlink:href="#8" y="15.197"/><use xlink:href="#9" y="17.368"/><use xlink:href="#10" y="19.539"/><use xlink:href="#11" y="21.71"/><use xlink:href="#12" y="23.881"/></svg><svg x="600"><use xlink:href="#a"/><use xlink:href="#1"/><use xlink:href="#2" y="2.171"/><use xlink:href="#3" y="4.342"/><use xlink:href="#4" y="6.513"/><use xlink:href="#5" y="8.684"/><use xlink:href="#6" y="10.855"/><use xlink:href="#7" y="13.026"/><use xlink:href="#8" y="15.197"/><use xlink:href="#9" y="17.368"/><use xlink:href="#10" y="19.539"/><use xlink:href="#11" y="21.71"/><use xlink:href="#12" y="23.881"/><use xlink:href="#13" y="26.052"/></svg><svg x="650"><use xlink:href="#a"/><use xlink:href="#1"/><use xlink:href="#2" y="2.171"/><use xlink:href="#3" y="4.342"/><use xlink:href="#4" y="6.513"/><use xlink:href="#5" y="8.684"/><use xlink:href="#6" y="10.855"/><use xlink:href="#7" y="13.026"/><use xlink:href="#8" y="15.197"/><use xlink:href="#9" y="17.368"/><use xlink:href="#10" y="19.539"/><use xlink:href="#11" y="21.71"/><use xlink:href="#12" y="23.881"/><use xlink:href="#13" y="26.052"/><use xlink:href="#14" y="28.223"/></svg><svg x="700"><use xlink:href="#a"/><use xlink:href="#1"/><use xlink:href="#2" y="2.171"/><use xlink:href="#3" y="4.342"/><use xlink:href="#4" y="6.513"/><use xlink:href="#5" y="8.684"/><use xlink:href="#6" y="10.855"/><use xlink:href="#7" y="13.026"/><use xlink:href="#8" y="15.197"/><use xlink:href="#9" y="17.368"/><use xlink:href="#10" y="19.539"/><use xlink:href="#11" y="21.71"/><use xlink:href="#12" y="23.881"/><use xlink:href="#13" y="26.052"/><use xlink:href="#14" y="28.223"/><use xlink:href="#15" y="30.394"/></svg><svg x="750"><use xlink:href="#a"/><use xlink:href="#1"/><use xlink:href="#2" y="2.171"/><use xlink:href="#3" y="4.342"/><use xlink:href="#4" y="6.513"/><use xlink:href="#5" y="8.684"/><use xlink:href="#6" y="10.855"/><use xlink:href="#7" y="13.026"/><use xlink:href="#8" y="15.197"/><use xlink:href="#9" y="17.368"/><use xlink:href="#10" y="19.539"/><use xlink:href="#11" y="21.71"/><use xlink:href="#12" y="23.881"/><use xlink:href="#13" y="26.052"/><use xlink:href="#14" y="28.223"/><use xlink:href="#15" y="30.394"/><use xlink:href="#16" y="32.565"/></svg><svg x="800"><use xlink:href="#a"/><use xlink:href="#1"/><use xlink:href="#2" y="2.171"/><use xlink:href="#3" y="4.342"/><use xlink:href="#4" y="6.513"/><use xlink:href="#5" y="8.684"/><use xlink:href="#6" y="10.855"/><use xlink:href="#7" y="13.026"/><use xlink:href="#8" y="15.197"/><use xlink:href="#9" y="17.368"/><use xlink:href="#10" y="19.539"/><use xlink:href="#11" y="21.71"/><use xlink:href="#12" y="23.881"/><use xlink:href="#13" y="26.052"/><use xlink:href="#14" y="28.223"/><use xlink:href="#15" y="30.394"/><use xlink:href="#16" y="32.565"/><use xlink:href="#17" y="34.736"/></svg><svg x="850"><use xlink:href="#a"/><use xlink:href="#1"/><use xlink:href="#2" y="2.171"/><use xlink:href="#3" y="4.342"/><use xlink:href="#4" y="6.513"/><use xlink:href="#5" y="8.684"/><use xlink:href="#6" y="10.855"/><use xlink:href="#7" y="13.026"/><use xlink:href="#8" y="15.197"/><use xlink:href="#9" y="17.368"/><use xlink:href="#10" y="19.539"/><use xlink:href="#11" y="21.71"/><use xlink:href="#12" y="23.881"/><use xlink:href="#13" y="26.052"/><use xlink:href="#14" y="28.223"/><use xlink:href="#15" y="30.394"/><use xlink:href="#16" y="32.565"/><use xlink:href="#17" y="34.736"/><use xlink:href="#18" y="36.907"/></svg><svg x="900"><use xlink:href="#a"/><use xlink:href="#1"/><use xlink:href="#2" y="2.171"/><use xlink:href="#3" y="4.342"/><use xlink:href="#4" y="6.513"/><use xlink:href="#5" y="8.684"/><use xlink:href="#6" y="10.855"/><use xlink:href="#7" y="13.026"/><use xlink:href="#8" y="15.197"/><use xlink:href="#9" y="17.368"/><use xlink:href="#10" y="19.539"/><use xlink:href="#11" y="21.71"/><use xlink:href="#12" y="23.881"/><use xlink:href="#13" y="26.052"/><use xlink:href="#14" y="28.223"/><use xlink:href="#15" y="30.394"/><use xlink:href="#16" y="32.565"/><use xlink:href="#17" y="34.736"/><use xlink:href="#18" y="36.907"/><use xlink:href="#19" y="39.078"/></svg><svg x="950"><use xlink:href="#a"/><use xlink:href="#1"/><use xlink:href="#2" y="2.171"/><use xlink:href="#3" y="4.342"/><use xlink:href="#4" y="6.513"/><use xlink:href="#5" y="8.684"/><use xlink:href="#6" y="10.855"/><use xlink:href="#7" y="13.026"/><use xlink:href="#8" y="15.197"/><use xlink:href="#9" y="17.368"/><use xlink:href="#10" y="19.539"/><use xlink:href="#11" y="21.71"/><use xlink:href="#12" y="23.881"/><use xlink:href="#13" y="26.052"/><use xlink:href="#14" y="28.223"/><use xlink:href="#15" y="30.394"/><use xlink:href="#16" y="32.565"/><use xlink:href="#17" y="34.736"/><use xlink:href="#18" y="36.907"/><use xlink:href="#19" y="39.078"/><use xlink:href="#20" y="41.249"/></svg><svg x="1000"><use xlink:href="#a"/><use xlink:href="#1"/><use xlink:href="#2" y="2.171"/><use xlink:href="#3" y="4.342"/><use xlink:href="#4" y="6.513"/><use xlink:href="#5" y="8.684"/><use xlink:href="#6" y="10.855"/><use xlink:href="#7" y="13.026"/><use xlink:href="#8" y="15.197"/><use xlink:href="#9" y="17.368"/><use xlink:href="#10" y="19.539"/><use xlink:href="#11" y="21.71"/><use xlink:href="#12" y="23.881"/><use xlink:href="#13" y="26.052"/><use xlink:href="#14" y="28.223"/><use xlink:href="#15" y="30.394"/><use xlink:href="#16" y="32.565"/><use xlink:href="#17" y="34.736"/><use xlink:href="#18" y="36.907"/><use xlink:href="#19" y="39.078"/><use xlink:href="#20" y="41.249"/><use xlink:href="#21" y="43.42"/></svg><svg x="1050"><use xlink:href="#a"/><use xlink:href="#1"/><use xlink:href="#2" y="2.171"/><use xlink:href="#3" y="4.342"/><use xlink:href="#4" y="6.513"/><use xlink:href="#5" y="8.684"/><use xlink:href="#6" y="10.855"/><use xlink:href="#7" y="13.026"/><use xlink:href="#8" y="15.197"/><use xlink:href="#9" y="17.368"/><use xlink:href="#10" y="19.539"/><use xlink:href="#11" y="21.71"/><use xlink:href="#12" y="23.881"/><use xlink:href="#13" y="26.052"/><use xlink:href="#14" y="28.223"/><use xlink:href="#15" y="30.394"/><use xlink:href="#16" y="32.565"/><use xlink:href="#17" y="34.736"/><use xlink:href="#18" y="36.907"/><use xlink:href="#19" y="39.078"/><use xlink:href="#20" y="41.249"/><use xlink:href="#21" y="43.42"/><use xlink:href="#22" y="45.591"/></svg><svg x="1100"><use xlink:href="#a"/><use xlink:href="#1"/><use xlink:href="#2" y="2.171"/><use xlink:href="#3" y="4.342"/><use xlink:href="#4" y="6.513"/><use xlink:href="#5" y="8.684"/><use xlink:href="#6" y="10.855"/><use xlink:href="#7" y="13.026"/><use xlink:href="#8" y="15.197"/><use xlink:href="#9" y="17.368"/><use xlink:href="#10" y="19.539"/><use xlink:href="#11" y="21.71"/><use xlink:href="#12" y="23.881"/><use xlink:href="#13" y="26.052"/><use xlink:href="#14" y="28.223"/><use xlink:href="#15" y="30.394"/><use xlink:href="#16" y="32.565"/><use xlink:href="#17" y="34.736"/><use xlink:href="#18" y="36.907"/><use xlink:href="#19" y="39.078"/><use xlink:href="#20" y="41.249"/><use xlink:href="#21" y="43.42"/><use xlink:href="#22" y="45.591"/><use xlink:href="#23" y="47.762"/></svg><svg x="1150"><use xlink:href="#a"/><use xlink:href="#1"/><use xlink:href="#2" y="2.171"/><use xlink:href="#3" y="4.342"/><use xlink:href="#4" y="6.513"/><use xlink:href="#5" y="8.684"/><use xlink:href="#6" y="10.855"/><use xlink:href="#7" y="13.026"/><use xlink:href="#8" y="15.197"/><use xlink:href="#9" y="17.368"/><use xlink:href="#10" y="19.539"/><use xlink:href="#11" y="21.71"/><use xlink:href="#12" y="23.881"/><use xlink:href="#13" y="26.052"/><use xlink:href="#14" y="28.223"/><use xlink:href="#15" y="30.394"/><use xlink:href="#16" y="32.565"/><use xlink:href="#17" y="34.736"/><use xlink:href="#18" y="36.907"/><use xlink:href="#19" y="39.078"/><use xlink:href="#20" y="41.249"/><use xlink:href="#21" y="43.42"/><use xlink:href="#22" y="45.591"/><use xlink:href="#23" y="47.762"/><use xlink:href="#24" y="49.933"/></svg><svg x="1200"><use xlink:href="#a"/><use xlink:href="#1"/><use xlink:href="#2" y="2.171"/><use xlink:href="#3" y="4.342"/><use xlink:href="#4" y="6.513"/><use xlink:href="#5" y="8.684"/><use xlink:href="#6" y="10.855"/><use xlink:href="#7" y="13.026"/><use xlink:href="#8" y="15.197"/><use xlink:href="#9" y="17.368"/><use xlink:href="#10" y="19.539"/><use xlink:href="#11" y="21.71"/><use xlink:href="#12" y="23.881"/><use xlink:href="#13" y="26.052"/><use xlink:href="#14" y="28.223"/><use xlink:href="#15" y="30.394"/><use xlink:href="#16" y="32.565"/><use xlink:href="#17" y="34.736"/><use xlink:href="#18" y="36.907"/><use xlink:href="#19" y="39.078"/><use xlink:href="#20" y="41.249"/><use xlink:href="#21" y="43.42"/><use xlink:href="#22" y="45.591"/><use xlink:href="#23" y="47.762"/><use xlink:href="#24" y="49.933"/><use xlink:href="#25" y="52.104"/></svg><svg x="1250"><use xlink:href="#a"/><use xlink:href="#1"/><use xlink:href="#2" y="2.171"/><use xlink:href="#3" y="4.342"/><use xlink:href="#4" y="6.513"/><use xlink:href="#5" y="8.684"/><use xlink:href="#6" y="10.855"/><use xlink:href="#7" y="13.026"/><use xlink:href="#8" y="15.197"/><use xlink:href="#9" y="17.368"/><use xlink:href="#10" y="19.539"/><use xlink:href="#11" y="21.71"/><use xlink:href="#12" y="23.881"/><use xlink:href="#13" y="26.052"/><use xlink:href="#14" y="28.223"/><use xlink:href="#15" y="30.394"/><use xlink:href="#16" y="32.565"/><use xlink:href="#17" y="34.736"/><use xlink:href="#18" y="36.907"/><use xlink:href="#19" y="39.078"/><use xlink:href="#20" y="41.249"/><use xlink:href="#21" y="43.42"/><use xlink:href="#22" y="45.591"/><use xlink:href="#23" y="47.762"/><use xlink:href="#24" y="49.933"/><use xlink:href="#25" y="52.104"/></svg></svg></g></g></svg></svg>
